<?xml version="1.0" encoding="utf-8"?>
<!-- Generator: Adobe Illustrator 15.1.0, SVG Export Plug-In . SVG Version: 6.00 Build 0)  -->
<!DOCTYPE svg PUBLIC "-//W3C//DTD SVG 1.1//EN" "http://www.w3.org/Graphics/SVG/1.1/DTD/svg11.dtd">
<svg version="1.1" id="Ebene_1" xmlns="http://www.w3.org/2000/svg" xmlns:xlink="http://www.w3.org/1999/xlink" x="0px" y="0px"
	 width="16.023px" height="16.261px" viewBox="0 0 16.023 16.261" enable-background="new 0 0 16.023 16.261" xml:space="preserve">
<g>
	<path fill="#C3C8D6" d="M10.648,1.2c2.302,0,4.175,1.873,4.175,4.175S12.95,9.55,10.648,9.55c-2.302,0-4.175-1.873-4.175-4.175
		S8.346,1.2,10.648,1.2 M10.648,0C7.679,0,5.273,2.406,5.273,5.375s2.406,5.375,5.375,5.375s5.375-2.406,5.375-5.375
		S13.617,0,10.648,0L10.648,0z"/>
	<path fill="#C3C8D6" stroke="#C3C8D6" stroke-width="1.1487" stroke-miterlimit="10" d="M1.698,15.494
		c-0.258,0.257-0.674,0.257-0.931,0l0,0c-0.257-0.258-0.257-0.674,0-0.932l5.319-5.319c0.257-0.257,0.674-0.257,0.931,0l0,0
		c0.257,0.257,0.257,0.673,0,0.93L1.698,15.494z"/>
</g>
</svg>
