<?xml version="1.0" encoding="utf-8"?>
<!-- Generator: Adobe Illustrator 13.0.0, SVG Export Plug-In . SVG Version: 6.00 Build 14948)  -->
<!DOCTYPE svg PUBLIC "-//W3C//DTD SVG 1.1//EN" "http://www.w3.org/Graphics/SVG/1.1/DTD/svg11.dtd">
<svg version="1.1" id="Ebene_1" xmlns="http://www.w3.org/2000/svg" xmlns:xlink="http://www.w3.org/1999/xlink" x="0px" y="0px"
	 width="224px" height="96px" viewBox="0 0 224 96" enable-background="new 0 0 224 96" xml:space="preserve">
<path fill="#D5D5D5" d="M23,5H9C6.8,5,5,6.8,5,9v14c0,2.2,1.8,4,4,4h14c2.2,0,4-1.8,4-4V9C27,6.8,25.2,5,23,5z M22,16v8.432h-3.375
	v-6h-5.25v6H10V16H8l4-4l4-4l4,4l4,4H22z"/>
<path fill="#D5D5D5" d="M55,5H41c-2.2,0-4,1.8-4,4v14c0,2.2,1.8,4,4,4h14c2.2,0,4-1.8,4-4V9C59,6.8,57.2,5,55,5z M56.5,22.237
	l-6.845-4.376v4.376l-7.158-4.577V23h-2.75V9h2.75v5.9l7.158-4.577V14.7l6.845-4.376V22.237z"/>
<path fill="#D5D5D5" d="M87,5H73c-2.2,0-4,1.8-4,4v14c0,2.2,1.8,4,4,4h14c2.2,0,4-1.8,4-4V9C91,6.8,89.2,5,87,5z M87.5,22.237
	l-6.845-4.376v4.376l-9.316-5.957l9.316-5.957V14.7l6.845-4.376V22.237z"/>
<path fill="#D5D5D5" d="M119,5h-14c-2.2,0-4,1.8-4,4v14c0,2.2,1.8,4,4,4h14c2.2,0,4-1.8,4-4V9C123,6.8,121.2,5,119,5z
	 M116.173,22.237l-9.316-5.957l9.316-5.957V22.237z"/>
<path fill="#D5D5D5" d="M197,9v14c0,2.2,1.801,4,4,4h14c2.201,0,4-1.8,4-4V9c0-2.2-1.799-4-4-4h-14C198.801,5,197,6.8,197,9z
	 M200.5,10.323l6.846,4.376v-4.376l9.316,5.957l-9.316,5.957v-4.376l-6.846,4.376V10.323z"/>
<path fill="#D5D5D5" d="M165,9v14c0,2.2,1.8,4,4,4h14c2.201,0,4-1.8,4-4V9c0-2.2-1.799-4-4-4h-14C166.8,5,165,6.8,165,9z
	 M171.827,10.323l9.317,5.957l-9.317,5.957V10.323z"/>
<path fill="#D5D5D5" d="M151,5h-14c-2.2,0-4,1.8-4,4v14c0,2.2,1.8,4,4,4h14c2.2,0,4-1.8,4-4V9C155,6.8,153.2,5,151,5z M135.5,14.719
	h11v2.763h-11V14.719z M135.5,18.402h11v2.764h-11V18.402z M152.25,24.85H135.5v-2.763h16.75V24.85z M152.25,13.797H135.5v-2.763
	h16.75V13.797z M152.25,10.113H135.5V7.35h16.75V10.113z"/>
<path fill="#CE3233" d="M23,37H9c-2.2,0-4,1.8-4,4v14c0,2.2,1.8,4,4,4h14c2.2,0,4-1.8,4-4V41C27,38.8,25.2,37,23,37z M22,48v8.432
	h-3.375v-6h-5.25v6H10V48H8l4-4l4-4l4,4l4,4H22z"/>
<path fill="#CE3233" d="M55,37H41c-2.2,0-4,1.8-4,4v14c0,2.2,1.8,4,4,4h14c2.2,0,4-1.8,4-4V41C59,38.8,57.2,37,55,37z M56.5,54.236
	l-6.845-4.375v4.375l-7.158-4.576V55h-2.75V41h2.75v5.9l7.158-4.577V46.7l6.845-4.376V54.236z"/>
<path fill="#CE3233" d="M87,37H73c-2.2,0-4,1.8-4,4v14c0,2.2,1.8,4,4,4h14c2.2,0,4-1.8,4-4V41C91,38.8,89.2,37,87,37z M87.5,54.236
	l-6.845-4.375v4.375l-9.316-5.958l9.316-5.957V46.7l6.845-4.376V54.236z"/>
<path fill="#CE3233" d="M119,37h-14c-2.2,0-4,1.8-4,4v14c0,2.2,1.8,4,4,4h14c2.2,0,4-1.8,4-4V41C123,38.8,121.2,37,119,37z
	 M116.173,54.236l-9.316-5.958l9.316-5.957V54.236z"/>
<path fill="#CE3233" d="M197,41v14c0,2.2,1.801,4,4,4h14c2.201,0,4-1.8,4-4V41c0-2.2-1.799-4-4-4h-14C198.801,37,197,38.8,197,41z
	 M200.5,42.323l6.846,4.376v-4.376l9.316,5.957l-9.316,5.957v-4.375l-6.846,4.375V42.323z"/>
<path fill="#CE3233" d="M165,41v14c0,2.2,1.8,4,4,4h14c2.201,0,4-1.8,4-4V41c0-2.2-1.799-4-4-4h-14C166.8,37,165,38.8,165,41z
	 M171.827,42.323l9.317,5.957l-9.317,5.957V42.323z"/>
<path fill="#CE3233" d="M151,37h-14c-2.2,0-4,1.8-4,4v14c0,2.2,1.8,4,4,4h14c2.2,0,4-1.8,4-4V41C155,38.8,153.2,37,151,37z
	 M135.5,46.719h11v2.763h-11V46.719z M135.5,50.402h11v2.764h-11V50.402z M152.25,56.85H135.5v-2.763h16.75V56.85z M152.25,45.797
	H135.5v-2.763h16.75V45.797z M152.25,42.113H135.5V39.35h16.75V42.113z"/>
<path fill="#D9C7BB" d="M23,69H9c-2.2,0-4,1.8-4,4v14c0,2.2,1.8,4,4,4h14c2.2,0,4-1.8,4-4V73C27,70.8,25.2,69,23,69z M22,80v8.432
	h-3.375v-6h-5.25v6H10V80H8l4-4l4-4l4,4l4,4H22z"/>
<path fill="#D9C7BB" d="M55,69H41c-2.2,0-4,1.8-4,4v14c0,2.2,1.8,4,4,4h14c2.2,0,4-1.8,4-4V73C59,70.8,57.2,69,55,69z M56.5,86.236
	l-6.845-4.375v4.375l-7.158-4.576V87h-2.75V73h2.75v5.9l7.158-4.578V78.7l6.845-4.376V86.236z"/>
<path fill="#D9C7BB" d="M87,69H73c-2.2,0-4,1.8-4,4v14c0,2.2,1.8,4,4,4h14c2.2,0,4-1.8,4-4V73C91,70.8,89.2,69,87,69z M87.5,86.236
	l-6.845-4.375v4.375l-9.316-5.957l9.316-5.957V78.7l6.845-4.376V86.236z"/>
<path fill="#D9C7BB" d="M119,69h-14c-2.2,0-4,1.8-4,4v14c0,2.2,1.8,4,4,4h14c2.2,0,4-1.8,4-4V73C123,70.8,121.2,69,119,69z
	 M116.173,86.236l-9.316-5.957l9.316-5.957V86.236z"/>
<path fill="#D9C7BB" d="M197,73v14c0,2.2,1.801,4,4,4h14c2.201,0,4-1.8,4-4V73c0-2.2-1.799-4-4-4h-14C198.801,69,197,70.8,197,73z
	 M200.5,74.322l6.846,4.377v-4.377l9.316,5.957l-9.316,5.957v-4.375l-6.846,4.375V74.322z"/>
<path fill="#D9C7BB" d="M165,73v14c0,2.2,1.8,4,4,4h14c2.201,0,4-1.8,4-4V73c0-2.2-1.799-4-4-4h-14C166.8,69,165,70.8,165,73z
	 M171.827,74.322l9.317,5.957l-9.317,5.957V74.322z"/>
<path fill="#D9C7BB" d="M151,69h-14c-2.2,0-4,1.8-4,4v14c0,2.2,1.8,4,4,4h14c2.2,0,4-1.8,4-4V73C155,70.8,153.2,69,151,69z
	 M135.5,78.719h11v2.764h-11V78.719z M135.5,82.402h11v2.764h-11V82.402z M152.25,88.85H135.5v-2.763h16.75V88.85z M152.25,77.797
	H135.5v-2.763h16.75V77.797z M152.25,74.113H135.5V71.35h16.75V74.113z"/>
</svg>
